ffmpeg started on 2025-05-12 at 15:59:34
Report written to "D:\Convert\FFMetrics\reports\ssim_report-6.txt"
Log level: 32
Command line:
ffmpeg -hide_banner -nostdin -i "G:\\\xc0\xed\xe8\xec\xe5\\\xce\xed\xe3\xee\xe8\xed\xe3\xe8\\!_35_\xcb\xe5\xf2\xee_2024\\DreamCast\\\xcb\xfe\xe1\xee\xe2\xfc \xed\xe5\xe4\xe5\xeb\xe8\xec\xe0 \xec\xe5\xe6\xe4\xf3 \xe1\xeb\xe8\xe7\xed\xe5\xf6\xe0\xec\xe8\\[DC] Koi wa Futago de Warikirenai - 12_Telegram_HEVC.mkv" -i "G:\\\xc0\xed\xe8\xec\xe5\\\xce\xed\xe3\xee\xe8\xed\xe3\xe8\\!_35_\xcb\xe5\xf2\xee_2024\\DreamCast\\\xcb\xfe\xe1\xee\xe2\xfc \xed\xe5\xe4\xe5\xeb\xe8\xec\xe0 \xec\xe5\xe6\xe4\xf3 \xe1\xeb\xe8\xe7\xed\xe5\xf6\xe0\xec\xe8\\[DC] Koi wa Futago de Warikirenai - 12_Telegram.mp4" -lavfi "[0:v]settb=AVTB,setpts=PTS-STARTPTS,format=pix_fmts=yuv420p10,fps=24000/1001,scale=1920:1080:flags=bicubic[main];[1:v]settb=AVTB,setpts=PTS-STARTPTS,format=pix_fmts=yuv420p,fps=24000/1001,scale=1920:1080:flags=bicubic[ref];[main][ref]ssim=eof_action=endall:stats_file='D\\:/Convert/FFMetrics/logs/ssim_logfile-6.txt'" -f null -
Input #0, matroska,webm, from 'G:\Аниме\Онгоинги\!_35_Лето_2024\DreamCast\Любовь неделима между близнецами\[DC] Koi wa Futago de Warikirenai - 12_Telegram_HEVC.mkv':
  Metadata:
    COMPATIBLE_BRANDS: isomiso2avc1mp41
    MAJOR_BRAND     : isom
    MINOR_VERSION   : 512
    ENCODER         : Lavf61.7.100
  Duration: 00:23:46.73, start: -0.021000, bitrate: 661 kb/s
  Stream #0:0: Video: hevc (Main 10), yuv420p10le(tv, bt709, progressive), 1920x1080 [SAR 1:1 DAR 16:9], 23.98 fps, 23.98 tbr, 1k tbn (default)
      Metadata:
        HANDLER_NAME    : VideoHandler
        VENDOR_ID       : [0][0][0][0]
        ENCODER         : Lavc61.19.100 libx265
        BPS             : 463815
        DURATION        : 00:23:46.549708333
        NUMBER_OF_FRAMES: 34203
        NUMBER_OF_BYTES : 82706943
        _STATISTICS_WRITING_APP: mkvpropedit v66.0.0 ('Josie') 64-bit
        _STATISTICS_WRITING_DATE_UTC: 2025-05-07 16:32:57
        _STATISTICS_TAGS: BPS DURATION NUMBER_OF_FRAMES NUMBER_OF_BYTES
  Stream #0:1: Audio: aac (LC), 48000 Hz, stereo, fltp (default)
      Metadata:
        HANDLER_NAME    : SoundHandler
        VENDOR_ID       : [0][0][0][0]
        ENCODER         : Lavc61.19.100 aac
        BPS             : 193238
        DURATION        : 00:23:46.730000000
        NUMBER_OF_FRAMES: 66879
        NUMBER_OF_BYTES : 34462438
        _STATISTICS_WRITING_APP: mkvpropedit v66.0.0 ('Josie') 64-bit
        _STATISTICS_WRITING_DATE_UTC: 2025-05-07 16:32:57
        _STATISTICS_TAGS: BPS DURATION NUMBER_OF_FRAMES NUMBER_OF_BYTES
Input #1, mov,mp4,m4a,3gp,3g2,mj2, from 'G:\Аниме\Онгоинги\!_35_Лето_2024\DreamCast\Любовь неделима между близнецами\[DC] Koi wa Futago de Warikirenai - 12_Telegram.mp4':
  Metadata:
    major_brand     : isom
    minor_version   : 512
    compatible_brands: isomiso2avc1mp41
    encoder         : Lavf61.1.100
  Duration: 00:23:46.68, start: 0.000000, bitrate: 3762 kb/s
  Stream #1:0[0x1](und): Video: h264 (High) (avc1 / 0x31637661), yuv420p(tv, bt709, progressive), 1920x1080 [SAR 1:1 DAR 16:9], 3614 kb/s, 23.98 fps, 23.98 tbr, 24k tbn (default)
      Metadata:
        handler_name    : VideoHandler
        vendor_id       : [0][0][0][0]
        encoder         : Lavc61.3.100 h264_qsv
  Stream #1:1[0x2](und): Audio: aac (HE-AACv2) (mp4a / 0x6134706D), 48000 Hz, stereo, fltp, 144 kb/s (default)
      Metadata:
        handler_name    : SoundHandler
        vendor_id       : [0][0][0][0]
Stream mapping:
  Stream #0:0 (hevc) -> settb:default
  Stream #1:0 (h264) -> settb:default
  ssim:default -> Stream #0:0 (wrapped_avframe)
  Stream #0:1 -> #0:1 (aac (native) -> pcm_s16le (native))
Output #0, null, to 'pipe:':
  Metadata:
    COMPATIBLE_BRANDS: isomiso2avc1mp41
    MAJOR_BRAND     : isom
    MINOR_VERSION   : 512
    encoder         : Lavf61.7.100
  Stream #0:0: Video: wrapped_avframe, yuv420p10le(tv, bt709, progressive), 1920x1080 [SAR 1:1 DAR 16:9], q=2-31, 200 kb/s, 23.98 fps, 23.98 tbn
      Metadata:
        encoder         : Lavc61.19.100 wrapped_avframe
  Stream #0:1: Audio: pcm_s16le, 48000 Hz, stereo, s16, 1536 kb/s (default)
      Metadata:
        HANDLER_NAME    : SoundHandler
        VENDOR_ID       : [0][0][0][0]
        _STATISTICS_TAGS: BPS DURATION NUMBER_OF_FRAMES NUMBER_OF_BYTES
        BPS             : 193238
        DURATION        : 00:23:46.730000000
        NUMBER_OF_FRAMES: 66879
        NUMBER_OF_BYTES : 34462438
        _STATISTICS_WRITING_APP: mkvpropedit v66.0.0 ('Josie') 64-bit
        _STATISTICS_WRITING_DATE_UTC: 2025-05-07 16:32:57
        encoder         : Lavc61.19.100 pcm_s16le
frame=  162 fps=0.0 q=-0.0 size=N/A time=00:00:06.75 bitrate=N/A speed=13.3x    frame=  421 fps=408 q=-0.0 size=N/A time=00:00:17.55 bitrate=N/A speed=  17x    frame=  685 fps=444 q=-0.0 size=N/A time=00:00:28.57 bitrate=N/A speed=18.5x    frame=  936 fps=453 q=-0.0 size=N/A time=00:00:39.03 bitrate=N/A speed=18.9x    frame= 1191 fps=463 q=-0.0 size=N/A time=00:00:49.67 bitrate=N/A speed=19.3x    frame= 1463 fps=472 q=-0.0 size=N/A time=00:01:01.01 bitrate=N/A speed=19.7x    frame= 1728 fps=480 q=-0.0 size=N/A time=00:01:12.07 bitrate=N/A speed=  20x    frame= 1977 fps=479 q=-0.0 size=N/A time=00:01:22.45 bitrate=N/A speed=  20x    frame= 2227 fps=481 q=-0.0 size=N/A time=00:01:32.88 bitrate=N/A speed=20.1x    frame= 2503 fps=485 q=-0.0 size=N/A time=00:01:44.39 bitrate=N/A speed=20.2x    frame= 2759 fps=487 q=-0.0 size=N/A time=00:01:55.07 bitrate=N/A speed=20.3x    frame= 3017 fps=488 q=-0.0 size=N/A time=00:02:05.83 bitrate=N/A speed=20.3x    frame= 3272 fps=489 q=-0.0 size=N/A time=00:02:16.46 bitrate=N/A speed=20.4x    frame= 3540 fps=491 q=-0.0 size=N/A time=00:02:27.64 bitrate=N/A speed=20.5x    frame= 3793 fps=491 q=-0.0 size=N/A time=00:02:38.19 bitrate=N/A speed=20.5x    frame= 4069 fps=493 q=-0.0 size=N/A time=00:02:49.71 bitrate=N/A speed=20.6x    frame= 4331 fps=494 q=-0.0 size=N/A time=00:03:00.63 bitrate=N/A speed=20.6x    frame= 4593 fps=495 q=-0.0 size=N/A time=00:03:11.56 bitrate=N/A speed=20.6x    frame= 4854 fps=496 q=-0.0 size=N/A time=00:03:22.45 bitrate=N/A speed=20.7x    frame= 5120 fps=497 q=-0.0 size=N/A time=00:03:33.54 bitrate=N/A speed=20.7x    frame= 5394 fps=498 q=-0.0 size=N/A time=00:03:44.97 bitrate=N/A speed=20.8x    frame= 5654 fps=499 q=-0.0 size=N/A time=00:03:55.86 bitrate=N/A speed=20.8x    frame= 5925 fps=500 q=-0.0 size=N/A time=00:04:07.12 bitrate=N/A speed=20.8x    frame= 6183 fps=500 q=-0.0 size=N/A time=00:04:17.88 bitrate=N/A speed=20.9x    frame= 6455 fps=501 q=-0.0 size=N/A time=00:04:29.22 bitrate=N/A speed=20.9x    frame= 6719 fps=501 q=-0.0 size=N/A time=00:04:40.23 bitrate=N/A speed=20.9x    frame= 6954 fps=500 q=-0.0 size=N/A time=00:04:50.03 bitrate=N/A speed=20.8x    frame= 7219 fps=500 q=-0.0 size=N/A time=00:05:01.09 bitrate=N/A speed=20.9x    frame= 7477 fps=500 q=-0.0 size=N/A time=00:05:11.85 bitrate=N/A speed=20.9x    frame= 7749 fps=501 q=-0.0 size=N/A time=00:05:23.19 bitrate=N/A speed=20.9x    frame= 8012 fps=501 q=-0.0 size=N/A time=00:05:34.16 bitrate=N/A speed=20.9x    frame= 8282 fps=502 q=-0.0 size=N/A time=00:05:45.42 bitrate=N/A speed=20.9x    frame= 8553 fps=503 q=-0.0 size=N/A time=00:05:56.73 bitrate=N/A speed=  21x    frame= 8788 fps=501 q=-0.0 size=N/A time=00:06:06.53 bitrate=N/A speed=20.9x    frame= 9014 fps=500 q=-0.0 size=N/A time=00:06:15.95 bitrate=N/A speed=20.8x    frame= 9287 fps=500 q=-0.0 size=N/A time=00:06:27.34 bitrate=N/A speed=20.9x    frame= 9531 fps=500 q=-0.0 size=N/A time=00:06:37.52 bitrate=N/A speed=20.8x    frame= 9781 fps=499 q=-0.0 size=N/A time=00:06:47.94 bitrate=N/A speed=20.8x    frame=10036 fps=499 q=-0.0 size=N/A time=00:06:58.58 bitrate=N/A speed=20.8x    frame=10306 fps=500 q=-0.0 size=N/A time=00:07:09.84 bitrate=N/A speed=20.8x    frame=10562 fps=500 q=-0.0 size=N/A time=00:07:20.52 bitrate=N/A speed=20.8x    frame=10809 fps=499 q=-0.0 size=N/A time=00:07:30.82 bitrate=N/A speed=20.8x    frame=11083 fps=500 q=-0.0 size=N/A time=00:07:42.25 bitrate=N/A speed=20.9x    frame=11352 fps=500 q=-0.0 size=N/A time=00:07:53.47 bitrate=N/A speed=20.9x    frame=11611 fps=501 q=-0.0 size=N/A time=00:08:04.27 bitrate=N/A speed=20.9x    frame=11887 fps=501 q=-0.0 size=N/A time=00:08:15.78 bitrate=N/A speed=20.9x    frame=12144 fps=501 q=-0.0 size=N/A time=00:08:26.50 bitrate=N/A speed=20.9x    frame=12414 fps=502 q=-0.0 size=N/A time=00:08:37.76 bitrate=N/A speed=20.9x    frame=12671 fps=502 q=-0.0 size=N/A time=00:08:48.48 bitrate=N/A speed=20.9x    frame=12908 fps=501 q=-0.0 size=N/A time=00:08:58.37 bitrate=N/A speed=20.9x    frame=13172 fps=501 q=-0.0 size=N/A time=00:09:09.38 bitrate=N/A speed=20.9x    frame=13452 fps=502 q=-0.0 size=N/A time=00:09:21.06 bitrate=N/A speed=20.9x    frame=13698 fps=501 q=-0.0 size=N/A time=00:09:31.32 bitrate=N/A speed=20.9x    frame=13963 fps=501 q=-0.0 size=N/A time=00:09:42.37 bitrate=N/A speed=20.9x    frame=14202 fps=501 q=-0.0 size=N/A time=00:09:52.34 bitrate=N/A speed=20.9x    frame=14459 fps=501 q=-0.0 size=N/A time=00:10:03.06 bitrate=N/A speed=20.9x    frame=14676 fps=499 q=-0.0 size=N/A time=00:10:12.11 bitrate=N/A speed=20.8x    frame=14944 fps=500 q=-0.0 size=N/A time=00:10:23.28 bitrate=N/A speed=20.8x    frame=15214 fps=500 q=-0.0 size=N/A time=00:10:34.55 bitrate=N/A speed=20.9x    frame=15483 fps=500 q=-0.0 size=N/A time=00:10:45.77 bitrate=N/A speed=20.9x    frame=15732 fps=500 q=-0.0 size=N/A time=00:10:56.15 bitrate=N/A speed=20.9x    frame=16003 fps=501 q=-0.0 size=N/A time=00:11:07.45 bitrate=N/A speed=20.9x    frame=16260 fps=501 q=-0.0 size=N/A time=00:11:18.17 bitrate=N/A speed=20.9x    frame=16494 fps=500 q=-0.0 size=N/A time=00:11:27.93 bitrate=N/A speed=20.8x    frame=16746 fps=500 q=-0.0 size=N/A time=00:11:38.44 bitrate=N/A speed=20.8x    frame=17016 fps=500 q=-0.0 size=N/A time=00:11:49.70 bitrate=N/A speed=20.9x    frame=17268 fps=500 q=-0.0 size=N/A time=00:12:00.21 bitrate=N/A speed=20.9x    frame=17541 fps=500 q=-0.0 size=N/A time=00:12:11.60 bitrate=N/A speed=20.9x    frame=17804 fps=501 q=-0.0 size=N/A time=00:12:22.57 bitrate=N/A speed=20.9x    frame=18068 fps=501 q=-0.0 size=N/A time=00:12:33.58 bitrate=N/A speed=20.9x    frame=18337 fps=501 q=-0.0 size=N/A time=00:12:44.80 bitrate=N/A speed=20.9x    frame=18572 fps=500 q=-0.0 size=N/A time=00:12:54.60 bitrate=N/A speed=20.9x    frame=18814 fps=500 q=-0.0 size=N/A time=00:13:04.70 bitrate=N/A speed=20.8x    frame=19078 fps=500 q=-0.0 size=N/A time=00:13:15.71 bitrate=N/A speed=20.9x    frame=19342 fps=500 q=-0.0 size=N/A time=00:13:26.72 bitrate=N/A speed=20.9x    frame=19603 fps=500 q=-0.0 size=N/A time=00:13:37.60 bitrate=N/A speed=20.9x    frame=19873 fps=501 q=-0.0 size=N/A time=00:13:48.86 bitrate=N/A speed=20.9x    frame=20137 fps=501 q=-0.0 size=N/A time=00:13:59.88 bitrate=N/A speed=20.9x    frame=20398 fps=501 q=-0.0 size=N/A time=00:14:10.76 bitrate=N/A speed=20.9x    frame=20652 fps=501 q=-0.0 size=N/A time=00:14:21.36 bitrate=N/A speed=20.9x    frame=20904 fps=501 q=-0.0 size=N/A time=00:14:31.87 bitrate=N/A speed=20.9x    frame=21167 fps=501 q=-0.0 size=N/A time=00:14:42.84 bitrate=N/A speed=20.9x    frame=21419 fps=501 q=-0.0 size=N/A time=00:14:53.35 bitrate=N/A speed=20.9x    frame=21682 fps=501 q=-0.0 size=N/A time=00:15:04.32 bitrate=N/A speed=20.9x    frame=21928 fps=500 q=-0.0 size=N/A time=00:15:14.58 bitrate=N/A speed=20.9x    frame=22194 fps=501 q=-0.0 size=N/A time=00:15:25.67 bitrate=N/A speed=20.9x    frame=22462 fps=501 q=-0.0 size=N/A time=00:15:36.85 bitrate=N/A speed=20.9x    frame=22732 fps=501 q=-0.0 size=N/A time=00:15:48.11 bitrate=N/A speed=20.9x    frame=22992 fps=501 q=-0.0 size=N/A time=00:15:58.95 bitrate=N/A speed=20.9x    frame=23264 fps=501 q=-0.0 size=N/A time=00:16:10.30 bitrate=N/A speed=20.9x    frame=23532 fps=502 q=-0.0 size=N/A time=00:16:21.48 bitrate=N/A speed=20.9x    frame=23802 fps=502 q=-0.0 size=N/A time=00:16:32.74 bitrate=N/A speed=20.9x    frame=24069 fps=502 q=-0.0 size=N/A time=00:16:43.87 bitrate=N/A speed=20.9x    frame=24332 fps=502 q=-0.0 size=N/A time=00:16:54.84 bitrate=N/A speed=20.9x    frame=24607 fps=502 q=-0.0 size=N/A time=00:17:06.31 bitrate=N/A speed=  21x    frame=24880 fps=503 q=-0.0 size=N/A time=00:17:17.70 bitrate=N/A speed=  21x    frame=25156 fps=503 q=-0.0 size=N/A time=00:17:29.21 bitrate=N/A speed=  21x    frame=25413 fps=503 q=-0.0 size=N/A time=00:17:39.93 bitrate=N/A speed=  21x    frame=25678 fps=503 q=-0.0 size=N/A time=00:17:50.98 bitrate=N/A speed=  21x    frame=25910 fps=502 q=-0.0 size=N/A time=00:18:00.66 bitrate=N/A speed=  21x    frame=26178 fps=503 q=-0.0 size=N/A time=00:18:11.84 bitrate=N/A speed=  21x    frame=26446 fps=503 q=-0.0 size=N/A time=00:18:23.01 bitrate=N/A speed=  21x    frame=26707 fps=503 q=-0.0 size=N/A time=00:18:33.90 bitrate=N/A speed=  21x    frame=26954 fps=502 q=-0.0 size=N/A time=00:18:44.20 bitrate=N/A speed=  21x    frame=27196 fps=502 q=-0.0 size=N/A time=00:18:54.29 bitrate=N/A speed=20.9x    frame=27462 fps=502 q=-0.0 size=N/A time=00:19:05.39 bitrate=N/A speed=20.9x    frame=27638 fps=501 q=-0.0 size=N/A time=00:19:12.73 bitrate=N/A speed=20.9x    frame=27903 fps=501 q=-0.0 size=N/A time=00:19:23.82 bitrate=N/A speed=20.9x    frame=28160 fps=501 q=-0.0 size=N/A time=00:19:34.50 bitrate=N/A speed=20.9x    frame=28411 fps=501 q=-0.0 size=N/A time=00:19:44.97 bitrate=N/A speed=20.9x    frame=28643 fps=500 q=-0.0 size=N/A time=00:19:54.65 bitrate=N/A speed=20.9x    frame=28871 fps=500 q=-0.0 size=N/A time=00:20:04.16 bitrate=N/A speed=20.8x    frame=29117 fps=500 q=-0.0 size=N/A time=00:20:14.46 bitrate=N/A speed=20.8x    frame=29369 fps=500 q=-0.0 size=N/A time=00:20:24.93 bitrate=N/A speed=20.8x    frame=29659 fps=500 q=-0.0 size=N/A time=00:20:37.02 bitrate=N/A speed=20.9x    frame=29934 fps=500 q=-0.0 size=N/A time=00:20:48.49 bitrate=N/A speed=20.9x    frame=30216 fps=501 q=-0.0 size=N/A time=00:21:00.25 bitrate=N/A speed=20.9x    frame=30488 fps=501 q=-0.0 size=N/A time=00:21:11.60 bitrate=N/A speed=20.9x    frame=30765 fps=501 q=-0.0 size=N/A time=00:21:23.15 bitrate=N/A speed=20.9x    frame=31028 fps=501 q=-0.0 size=N/A time=00:21:34.12 bitrate=N/A speed=20.9x    frame=31301 fps=502 q=-0.0 size=N/A time=00:21:45.51 bitrate=N/A speed=20.9x    frame=31554 fps=502 q=-0.0 size=N/A time=00:21:56.06 bitrate=N/A speed=20.9x    frame=31803 fps=501 q=-0.0 size=N/A time=00:22:06.45 bitrate=N/A speed=20.9x    frame=32025 fps=501 q=-0.0 size=N/A time=00:22:15.70 bitrate=N/A speed=20.9x    frame=32266 fps=501 q=-0.0 size=N/A time=00:22:25.76 bitrate=N/A speed=20.9x    frame=32526 fps=500 q=-0.0 size=N/A time=00:22:36.60 bitrate=N/A speed=20.9x    frame=32773 fps=500 q=-0.0 size=N/A time=00:22:46.90 bitrate=N/A speed=20.9x    frame=33040 fps=500 q=-0.0 size=N/A time=00:22:58.04 bitrate=N/A speed=20.9x    frame=33252 fps=500 q=-0.0 size=N/A time=00:23:06.88 bitrate=N/A speed=20.8x    frame=33487 fps=499 q=-0.0 size=N/A time=00:23:16.68 bitrate=N/A speed=20.8x    frame=33721 fps=499 q=-0.0 size=N/A time=00:23:26.44 bitrate=N/A speed=20.8x    frame=33956 fps=499 q=-0.0 size=N/A time=00:23:36.24 bitrate=N/A speed=20.8x    frame=34196 fps=498 q=-0.0 size=N/A time=00:23:46.25 bitrate=N/A speed=20.8x    [Parsed_ssim_10 @ 000001f27bdad1c0] SSIM Y:0.994430 (22.541586) U:0.992093 (21.019751) V:0.992598 (21.306614) All:0.993735 (22.030980)
[out#0/null @ 000001f26f056e00] video:14697KiB audio:267516KiB subtitle:0KiB other streams:0KiB global headers:0KiB muxing overhead: unknown
frame=34203 fps=498 q=-0.0 Lsize=N/A time=00:23:46.55 bitrate=N/A speed=20.8x    
